<?xml version="1.0" encoding="UTF-8"?>
<svg width="752pt" height="752pt" version="1.1" viewBox="0 0 752 752" xmlns="http://www.w3.org/2000/svg">
	<path d="m577.27 296.44c-6.6289 0-11.84 5.2109-11.84 11.84v175.23h-0.47266l-177.12 75.297v-204.11l191.8-81.93c3.3164-1.4219 5.6836-4.2617 7.1055-8.0508 0.94531-3.3164 0.47266-7.1055-1.8945-10.418-2.3672-3.7891-5.6836-6.1562-9.4727-7.5781 0 0-0.47266-0.47266-0.94531-0.47266-16.574-7.1055-84.297-35.992-134.02-57.305-29.836-12.785-53.043-22.73-54.934-23.68-6.1562-2.3672-12.785-2.3672-18.941 0-1.8945 0.94531-24.625 10.418-53.516 22.73-49.73 21.785-118.4 51.148-135.92 58.727-3.7891 1.8945-7.1055 4.2617-9.9453 8.0508-2.8398 4.2617-4.7344 8.9961-4.7344 14.207v214.53c0 9.4727 5.6836 17.996 14.207 21.785 0 0 0.47266 0 0.47266 0.47266l188.96 80.508c0.47266 0 0.94531 0.47266 1.4219 0.47266 2.3672 0.94531 5.2109 1.4219 8.0508 1.4219s5.6836-0.47266 8.0508-1.4219c0.47266 0 0.94531-0.47266 1.4219-0.47266l188.96-80.508s0.47266 0 0.47266-0.47266c8.5234-3.7891 14.207-12.312 14.207-21.785v-175.23c0.47656-6.6289-4.7344-11.836-11.363-11.836zm-390.23 187.06v-214.53h0.47266c17.523-7.5781 85.719-36.465 135.45-57.777 28.887-12.312 51.621-22.258 53.516-22.73 1.8945 0.94531 25.102 10.891 54.934 23.68 38.359 16.574 87.613 37.414 115.55 49.254l-170.96 71.98-150.6-63.934c-6.1562-2.3672-13.262 0-15.629 6.1562-2.8398 6.1562 0 13.262 6.1562 15.629l147.76 62.984v204.11z" />
</svg>
