<?xml version="1.0" encoding="UTF-8" standalone="no"?>
<!DOCTYPE svg PUBLIC "-//W3C//DTD SVG 1.1//EN" "http://www.w3.org/Graphics/SVG/1.1/DTD/svg11.dtd">
<svg width="100%" height="100%" viewBox="0 0 1000 1000" version="1.1" xmlns="http://www.w3.org/2000/svg" xmlns:xlink="http://www.w3.org/1999/xlink" xml:space="preserve" xmlns:serif="http://www.serif.com/" style="fill-rule:evenodd;clip-rule:evenodd;stroke-linejoin:round;stroke-miterlimit:2;">
    <g transform="matrix(1.19434e-15,1,-1,1.19434e-15,1000,-5.68434e-13)">
        <path d="M601.222,900C621.283,900 640.017,889.974 651.145,873.282C698.259,802.612 826.074,610.89 877.812,533.282C891.248,513.128 891.248,486.872 877.812,466.718C826.074,389.11 698.259,197.388 651.145,126.718C640.017,110.026 621.283,100 601.222,100C514.251,100 273.095,100 160,100C126.863,100 100,126.863 100,160L100,840C100,873.137 126.863,900 160,900L601.222,900Z"/>
    </g>
</svg>
