<?xml version="1.0" encoding="UTF-8"?>
<svg width="752pt" height="752pt" version="1.1" viewBox="0 0 752 752" xmlns="http://www.w3.org/2000/svg">
	<path
		d="m376 570.17c97.086 0 141.6-30.309 141.6-58.723v-1.8945-0.94531-268.05c0-28.418-44.516-58.727-141.6-58.727s-141.6 30.309-141.6 58.723v268.52 0.94531 1.8945c0.003906 27.945 44.52 58.254 141.6 58.254zm0-28.414c-73.406 0-113.19-21.312-113.19-30.309 0-8.5234 39.781-30.309 113.19-30.309s113.19 21.312 113.19 30.309c0 9-39.781 30.309-113.19 30.309zm-113.18-66.773v-197.96c22.73 12.785 60.145 21.785 113.19 21.785 53.043 0 90.453-8.9961 113.19-21.785v197.96c-22.73-12.785-60.145-21.785-113.19-21.785-53.043 0-90.457 8.9961-113.19 21.785zm113.18-264.73c73.406 0 113.19 21.312 113.19 30.309 0 8.5234-39.781 30.309-113.19 30.309s-113.19-21.312-113.19-30.309c0.003906-9 39.785-30.309 113.19-30.309z" />
</svg>
