<!-- <?xml version="1.0" encoding="UTF-8"?>
<svg width="752pt" height="752pt" version="1.1" viewBox="0 0 752 752" xmlns="http://www.w3.org/2000/svg">
	<g>
		<path
			d="m401.65 376c0 21.215-17.195 38.414-38.41 38.414-21.215 0-38.414-17.199-38.414-38.414s17.199-38.41 38.414-38.41c21.215 0 38.41 17.195 38.41 38.41" />
		<path
			d="m606.21 376c-0.027344-8.5156-2.8867-16.781-8.125-23.496-5.2422-6.7148-12.562-11.5-20.816-13.602-9.2891-53.648-38.367-101.86-81.488-135.11-43.121-33.246-97.145-49.105-151.39-44.445s-104.77 29.504-141.59 69.621c-36.816 40.117-57.246 92.582-57.246 147.03s20.43 106.92 57.246 147.04c36.816 40.113 87.34 64.957 141.59 69.621 54.25 4.6602 108.27-11.199 151.39-44.445 43.121-33.246 72.199-81.461 81.488-135.11 8.2539-2.0977 15.574-6.8828 20.816-13.598 5.2383-6.7148 8.0977-14.98 8.125-23.5zm-243.37 191.8c-48.84-0.070312-95.812-18.77-131.34-52.281-35.523-33.512-56.93-79.316-59.844-128.07-2.9141-48.754 12.879-96.781 44.156-134.29 31.277-37.508 75.688-61.672 124.17-67.562 48.484-5.8906 97.387 6.9375 136.74 35.863 39.348 28.926 66.184 71.777 75.027 119.81-8.8789 4.1172-15.844 11.477-19.465 20.57-3.6172 9.0898-3.6172 19.223 0 28.316 3.6211 9.0938 10.586 16.453 19.465 20.57-8.1758 44.129-31.547 83.996-66.055 112.69-34.508 28.691-77.977 44.395-122.85 44.379z" />
		<path
			d="m484.66 362.85h-38.281c-5.8516 1.4648-9.9531 6.7266-9.9531 12.758 0 6.0352 4.1016 11.293 9.9531 12.762h38.281c3.9336 0.98437 8.0977 0.10547 11.293-2.3906 3.1953-2.4922 5.0625-6.3164 5.0625-10.371 0-4.0508-1.8672-7.8789-5.0625-10.371s-7.3594-3.375-11.293-2.3867z" />
	</g>
</svg> -->
<?xml version="1.0" encoding="UTF-8"?>
<svg width="752" height="752" xmlns="http://www.w3.org/2000/svg" version="1.1">
    <g>
        <title>Layer 1</title>
        <g stroke="null" id="svg_1">
            <path stroke="null" id="svg_2"
                d="m416.53477,375.99523c0,33.37325 -27.0494,60.42895 -60.42266,60.42895c-33.37325,0 -60.42895,-27.0557 -60.42895,-60.42895s27.0557,-60.42266 60.42895,-60.42266c33.37325,0 60.42266,27.0494 60.42266,60.42266" />
            <path stroke="null" id="svg_3"
                d="m738.3275,375.99523c-0.04301,-13.39587 -4.54106,-26.39814 -12.78141,-36.96149c-8.24649,-10.56303 -19.76124,-18.09062 -32.74559,-21.39727c-14.61266,-84.39351 -60.35501,-160.23566 -128.18853,-212.54114c-67.83352,-52.29918 -152.81851,-77.24693 -238.15116,-69.9163s-164.81338,46.41265 -222.73481,109.52059c-57.91514,63.10793 -90.05351,145.64047 -90.05351,231.29246s32.13837,168.19554 90.05351,231.30819c57.91514,63.10164 137.3943,102.18366 222.73481,109.52059c85.34051,7.33095 170.31922,-17.61711 238.15116,-69.9163c67.83352,-52.29918 113.57603,-128.14606 128.18853,-212.54114c12.98419,-3.29989 24.49941,-10.82731 32.74559,-21.39097c8.24035,-10.56303 12.73847,-23.56499 12.78141,-36.96778l0,-0.00944zm-382.84463,301.72001c-76.83006,-0.1106 -150.72157,-29.52703 -206.61056,-82.24309c-55.88113,-52.71763 -89.55641,-124.77176 -94.14042,-201.46654c-4.58416,-76.69477 20.25992,-152.2459 69.46167,-211.2512c49.20176,-59.00372 119.06457,-97.01604 195.33146,-106.28158c76.27004,-9.26649 153.1992,10.91336 215.10529,56.41598c61.89822,45.5034 104.11385,112.91219 118.02475,188.47276c-13.96737,6.47676 -24.92415,18.05443 -30.62033,32.35861c-5.69021,14.29914 -5.69021,30.23964 0,44.54382c5.69634,14.30543 16.65281,25.88217 30.62033,32.35861c-12.86133,69.4192 -49.62649,132.13386 -103.91092,177.27231c-54.28443,45.13373 -122.66539,69.83764 -193.25497,69.81247l-0.00629,0.00787z" />
            <path stroke="null" id="svg_4"
                d="m547.11756,355.309l-60.21973,0c-9.20513,2.30427 -15.65719,10.58159 -15.65719,20.06957c0,9.49396 6.45221,17.76498 15.65719,20.07586l60.21973,0c6.18793,1.54851 12.73847,0.16591 17.76498,-3.76065c5.02652,-3.92047 7.9638,-9.93631 7.9638,-16.31459c0,-6.3723 -2.93729,-12.39427 -7.9638,-16.31459s-11.57705,-5.3092 -17.76498,-3.75451l0,-0.0011z" />
        </g>
    </g>
</svg>
