<?xml version="1.0" encoding="UTF-8"?>
<svg width="752" height="752" xmlns="http://www.w3.org/2000/svg" version="1.1">
    <g>
        <title>Layer 1</title>
        <g stroke="null" id="svg_1">
            <path stroke="null" id="svg_2"
                d="m416.53477,375.99523c0,33.37325 -27.0494,60.42895 -60.42266,60.42895c-33.37325,0 -60.42895,-27.0557 -60.42895,-60.42895s27.0557,-60.42266 60.42895,-60.42266c33.37325,0 60.42266,27.0494 60.42266,60.42266" />
            <path stroke="null" id="svg_3"
                d="m738.3275,375.99523c-0.04301,-13.39587 -4.54106,-26.39814 -12.78141,-36.96149c-8.24649,-10.56303 -19.76124,-18.09062 -32.74559,-21.39727c-14.61266,-84.39351 -60.35501,-160.23566 -128.18853,-212.54114c-67.83352,-52.29918 -152.81851,-77.24693 -238.15116,-69.9163s-164.81338,46.41265 -222.73481,109.52059c-57.91514,63.10793 -90.05351,145.64047 -90.05351,231.29246s32.13837,168.19554 90.05351,231.30819c57.91514,63.10164 137.3943,102.18366 222.73481,109.52059c85.34051,7.33095 170.31922,-17.61711 238.15116,-69.9163c67.83352,-52.29918 113.57603,-128.14606 128.18853,-212.54114c12.98419,-3.29989 24.49941,-10.82731 32.74559,-21.39097c8.24035,-10.56303 12.73847,-23.56499 12.78141,-36.96778l0,-0.00944zm-382.84463,301.72001c-76.83006,-0.1106 -150.72157,-29.52703 -206.61056,-82.24309c-55.88113,-52.71763 -89.55641,-124.77176 -94.14042,-201.46654c-4.58416,-76.69477 20.25992,-152.2459 69.46167,-211.2512c49.20176,-59.00372 119.06457,-97.01604 195.33146,-106.28158c76.27004,-9.26649 153.1992,10.91336 215.10529,56.41598c61.89822,45.5034 104.11385,112.91219 118.02475,188.47276c-13.96737,6.47676 -24.92415,18.05443 -30.62033,32.35861c-5.69021,14.29914 -5.69021,30.23964 0,44.54382c5.69634,14.30543 16.65281,25.88217 30.62033,32.35861c-12.86133,69.4192 -49.62649,132.13386 -103.91092,177.27231c-54.28443,45.13373 -122.66539,69.83764 -193.25497,69.81247l-0.00629,0.00787z" />
            <path stroke="null" id="svg_4"
                d="m547.11756,355.309l-60.21973,0c-9.20513,2.30427 -15.65719,10.58159 -15.65719,20.06957c0,9.49396 6.45221,17.76498 15.65719,20.07586l60.21973,0c6.18793,1.54851 12.73847,0.16591 17.76498,-3.76065c5.02652,-3.92047 7.9638,-9.93631 7.9638,-16.31459c0,-6.3723 -2.93729,-12.39427 -7.9638,-16.31459s-11.57705,-5.3092 -17.76498,-3.75451l0,-0.0011z" />
        </g>
    </g>
</svg>
