<?xml version="1.0" encoding="UTF-8"?>
<svg width="752pt" height="752pt" version="1.1" viewBox="0 0 752 752" xmlns="http://www.w3.org/2000/svg">
	<defs>
		<clipPath id="a">
			<path d="m139.21 139.21h473.58v473.58h-473.58z" />
		</clipPath>
	</defs>
	<path
		d="m246.14 345.41c0.49219 0 1.0078-0.039062 1.5195-0.11719 6.2734-0.96875 12.785-1.8359 19.516-2.6445 5.4258-0.65234 9.2734-5.5664 8.625-10.973-0.67188-5.4258-5.6641-9.332-10.973-8.6211-6.9648 0.84766-13.695 1.7578-20.148 2.7422-5.3867 0.80859-9.0977 5.8398-8.2695 11.227 0.75391 4.8945 4.957 8.3867 9.7305 8.3867z" />
	<path
		d="m542.35 352.6c6.7109 1.6172 12.906 3.3359 18.547 5.1484 0.98828 0.31641 2.0117 0.47266 3.0195 0.47266 4.1641 0 8.0508-2.6641 9.4141-6.8672 1.6758-5.1719-1.1641-10.734-6.3555-12.41-6.0781-1.9531-12.766-3.8086-19.988-5.543-5.543-1.2812-10.656 2.0117-11.918 7.3008-1.2852 5.3086 1.9727 10.617 7.2812 11.898z" />
	<path
		d="m484.37 342.59c6.7305 0.80859 13.242 1.6758 19.535 2.625 0.49219 0.058594 1.0078 0.097656 1.4805 0.097656 4.7969 0 9.0195-3.5117 9.7461-8.4062 0.80859-5.3867-2.9219-10.398-8.2891-11.207-6.5117-0.96875-13.199-1.875-20.129-2.7031-5.2891-0.53125-10.32 3.2148-10.973 8.625-0.64453 5.4062 3.2227 10.316 8.6289 10.969z" />
	<path
		d="m385.85 316.84-9.8477-0.039062-10.34 0.039062c-5.4453 0.039062-9.8242 4.5-9.8047 9.9453 0.039062 5.4453 4.5977 9.707 9.9453 9.7891l10.199-0.042969 9.6484 0.039063h0.097656c5.4258 0 9.8086-4.3398 9.8672-9.7891 0.0625-5.4219-4.3594-9.9023-9.7656-9.9414z" />
	<path
		d="m187.61 358.36c1.0078 0 2.0312-0.15625 3.0391-0.49219 5.6445-1.8164 11.84-3.5508 18.547-5.1914 5.2891-1.2812 8.5234-6.6094 7.2422-11.918-1.3008-5.2852-6.668-8.543-11.914-7.2422-7.2031 1.7578-13.871 3.6289-19.949 5.5859-5.1719 1.6758-8.0312 7.2227-6.3555 12.41 1.3594 4.1836 5.2305 6.8477 9.3906 6.8477z" />
	<g clip-path="url(#a)">
		<path
			d="m612.79 375.98c0-0.058594-0.019531-0.097657-0.019531-0.13672-0.082032-130.51-106.26-236.63-236.77-236.63-130.57 0-236.79 106.22-236.79 236.79s106.22 236.79 236.79 236.79c130.53 0 236.73-106.16 236.79-236.69-0.015624-0.035156 0.003907-0.078125 0.003907-0.11719zm-20.543-15.605c-3.4531 3.5898-3.8477 9.2148-0.57031 13.082 0.86719 1.0234 1.3789 1.9727 1.3789 2.543 0 13.398-76.621 39.465-217.06 39.465-13.555 0-26.344-0.31641-38.695-0.76953-0.47266-12.352-0.76953-25.137-0.76953-38.695 0-140.44 26.066-217.06 39.465-217.06 0.57031 0 1.5195 0.51172 2.5469 1.3633 1.8359 1.5391 4.1055 2.3086 6.3359 2.3086 2.4648 0 4.8359-1.0859 6.7109-2.8828 107.2 7.6797 192.96 93.418 200.66 200.64zm-242.98-199.62c-18.371 33.289-27.273 99.57-30.688 157.68-4.5156 0.25781-9.0547 0.49219-13.457 0.80859-5.4453 0.375-9.5508 5.1133-9.1562 10.539 0.375 5.2109 4.6953 9.1758 9.8281 9.1758 0.25781 0 0.49219-0.019532 0.69141-0.039063 3.6523-0.25781 7.3984-0.45312 11.129-0.67188-0.55469 13.555-0.80859 26.402-0.80859 37.746 0 11.367 0.27734 24.23 0.80859 37.789-103.04-5.8789-158.67-26.383-158.67-37.789 0-0.57031 0.51172-1.5195 1.3828-2.5273 3.2773-3.9062 2.8828-9.5312-0.59375-13.121 7.418-103.46 87.551-186.98 189.53-199.59zm-188.51 241.98c33.309 18.391 99.668 27.289 157.82 30.684 3.3945 58.133 12.293 124.49 30.684 157.82-98.305-12.152-176.35-90.195-188.5-188.5zm230.85 189.53c-3.5898-3.4531-9.1953-3.8281-13.082-0.57031-1.0078 0.84766-1.9531 1.3594-2.5273 1.3594-11.406 0-31.906-55.645-37.789-158.67 13.559 0.53125 26.406 0.80859 37.789 0.80859 11.367 0 24.191-0.27734 37.75-0.80859-0.21875 3.5508-0.39453 7.1641-0.63281 10.656-0.35547 5.4453 3.75 10.141 9.1758 10.516 0.23828 0.019531 0.45312 0.019531 0.69141 0.019531 5.1289 0 9.4531-3.9844 9.8281-9.2344 0.29688-4.2227 0.51172-8.6016 0.76953-12.926 58.113-3.4141 124.38-12.312 157.66-30.684-12.633 101.98-96.16 182.11-199.64 189.53z" />
	</g>
	<path
		d="m425.16 355.88c-5.4453 0.058594-9.8086 4.5391-9.7461 9.9844l0.054688 10.141-0.039063 9.707c-0.039062 5.4453 4.3594 9.9062 9.8086 9.9258h0.058594c5.4062 0 9.8281-4.3789 9.8672-9.8086l0.039063-9.8242-0.058594-10.379c-0.058594-5.4453-5.3867-10.102-9.9844-9.7461z" />
	<path
		d="m406.73 247.62c0.94531 6.2734 1.8359 12.805 2.6641 19.535 0.59375 5.0117 4.8555 8.6836 9.7695 8.6836 0.39453 0 0.80859-0.019532 1.2031-0.039063 5.4062-0.67188 9.2539-5.5859 8.6016-10.992-0.82812-6.9453-1.7578-13.656-2.7422-20.129-0.80859-5.3867-6.0781-8.957-11.207-8.2891-5.4102 0.8125-9.1016 5.8438-8.2891 11.23z" />
	<path
		d="m420.44 475.73c-5.2305-0.57031-10.34 3.1953-10.992 8.625-0.82812 6.7305-1.6953 13.242-2.6641 19.516-0.82812 5.3867 2.8828 10.418 8.25 11.246 0.49219 0.078124 1.0273 0.11719 1.5195 0.11719 4.7734 0 8.9766-3.4922 9.7461-8.3672 1.0078-6.4922 1.9141-13.199 2.7422-20.148 0.65625-5.4062-3.2148-10.316-8.6016-10.988z" />
	<path
		d="m411.3 535.07c-5.3867-1.3008-10.656 1.9922-11.918 7.2812-1.6172 6.7109-3.3359 12.945-5.1484 18.59-1.6562 5.1719 1.2031 10.734 6.3945 12.391 0.98828 0.31641 2.0117 0.45312 3 0.45312 4.1836 0 8.0703-2.6641 9.4336-6.8477 1.9141-6.0586 3.7891-12.727 5.5234-19.949 1.2969-5.3086-1.9609-10.637-7.2852-11.918z" />
	<path
		d="m399.3 209.2c1.0859 4.5195 5.1289 7.5391 9.5898 7.5391 0.76953 0 1.5391-0.078126 2.3281-0.25781 5.2891-1.2812 8.5234-6.6094 7.2617-11.918-1.7734-7.2227-3.6094-13.914-5.582-19.969-1.6758-5.1719-7.2227-8.0117-12.41-6.3555-5.1719 1.6562-8.0312 7.2227-6.3555 12.41 1.793 5.625 3.5508 11.82 5.168 18.551z" />
	<path
		d="m413.06 306.48c0.47266 6.4531 0.86719 13.043 1.2031 19.734 0.13672 2.7422 1.4023 5.1289 3.2969 6.8477 1.6562 2.6055 4.3789 4.5195 7.6953 4.6562 6.7109 0.33594 13.301 0.73047 19.734 1.1836 0.25781 0.019531 0.47266 0.019531 0.73047 0.019531 5.1094 0 9.4531-3.9648 9.8086-9.1367 0.375-5.4453-3.7109-10.164-9.1367-10.559-4.1836-0.31641-8.5234-0.53125-12.848-0.76953-0.25781-4.4805-0.49219-8.9961-0.78906-13.379-0.375-5.4453-5.6641-9.6484-10.539-9.1367-5.4648 0.375-9.5703 5.1133-9.1562 10.539z" />
</svg>
